<svg xmlns="http://www.w3.org/2000/svg" xmlns:svg="http://www.w3.org/2000/svg" xmlns:xlink="http://www.w3.org/1999/xlink" version="1.0" height="664pt" width="1286.4563384783978pt" viewBox="38 320 1294.4563384783978 670" ><defs><style type="text/css">
            @font-face {
                font-family: 'noto_regular';
                src: url('https://app.creately.com/diagram/assets/fonts/noto/noto-regular.woff') format('woff'),
                     url('https://app.creately.com/diagram/assets/fonts/noto/noto-regular.woff2') format('woff2');
                font-weight: normal;
                font-style: normal;
            }
        p {
            margin: 0;
        }
        </style></defs><defs><style>
            span{ display: inline-block; }
        </style></defs><g id="2m10hnt9db"><g transform="translate(60 840)"><rect x="0" y="0" width="101" height="101" fill="rgba(255,255,255,1)" stroke="#03c9a9" stroke-width="1.5" stroke-linecap="round" stroke-linejoin="round"/></g><g transform="translate(78, 881) rotate(0, 32.5, 9.5)" width="65" height="19"><text text-decoration="none" x="3" fill="rgb(0, 0, 0)" font-size="10pt" font-family="Lato"  y="17">Employee</text><text text-decoration="none" x="62" fill="#4b4b4b" font-size="10pt" font-family="noto_regular"  y="17"></text></g></g><g id="18pf7wblvz"><g transform="translate(370 845)"><path d="M 0.75,0.75 L 149.75,0.75 L 149.75,88.75 L 0.75,88.75 Z" fill="rgb(255, 255, 255)" stroke="rgb(3, 201, 169)" stroke-width="1.5" stroke-linecap="round" stroke-linejoin="round"/><path d="M 0.75,30.25 L 149.75,30.25" fill="none" stroke="rgb(3, 201, 169)" stroke-width="1.5" stroke-linecap="round" stroke-linejoin="round"/><path d="M 0.75,73.25 L 149.75,73.25" fill="none" stroke="rgb(3, 201, 169)" stroke-width="1.5" stroke-linecap="round" stroke-linejoin="round"/></g><g transform="translate(411, 846) rotate(0, 0, 0)" width="85" height="19"><text text-decoration="none" x="0" fill="#4b4b4b" font-weight="bold" font-size="11pt" font-family="Lato"  y="17">Process&#160;</text><text text-decoration="none" x="60" fill="#4b4b4b" font-weight="bold" font-size="11pt" font-family="Lato"  y="17">1&#160;</text><text text-decoration="none" x="73" fill="#4b4b4b" font-size="10pt" font-family="noto_regular"  y="17"></text></g><g transform="translate(400.75, 878) rotate(0, 46, 0)" width="92" height="37"><text text-decoration="none" x="5" fill="#4b4b4b" font-size="11pt" font-family="Lato"  y="16">Verify&#160;</text><text text-decoration="none" x="49" fill="#4b4b4b" font-size="11pt" font-family="Lato"  y="16">Login</text><text text-decoration="none" x="87" fill="#4b4b4b" font-size="11pt" font-family="Lato"  y="16"></text><text text-decoration="none" x="3" fill="#4b4b4b" font-size="11pt" font-family="Lato"  y="38">Information&#160;</text><text text-decoration="none" x="89" fill="#4b4b4b" font-size="10pt" font-family="noto_regular"  y="38"></text></g></g><g id="2inbx7p7ud"><g><path d="M 160,890 L 370,890" fill="none" stroke="#000846" stroke-width="2" stroke-linecap="round" stroke-linejoin="round"/><path d="M 370,890 L 361.30434782608694,884.25 L 361.30434782608694,895.75 Z" fill="rgb(0,8,70)" stroke="#000846" stroke-width="2" stroke-linecap="round" stroke-linejoin="round"/></g></g><g id="2p0ulagdzp"><g transform="translate(175 850)"><rect x="0" y="0" width="165.0000035762787" height="51.9996337890625" fill="rgba(255,255,255,0.01)" stroke="rgba(255,255,255,0.01)" stroke-width="NaN" stroke-linecap="round" stroke-linejoin="round"/></g><g transform="translate(206.50000178813934, 858.9998168945312) rotate(0, 51, 17)" width="102" height="34"><text text-decoration="none" x="4" fill="rgb(0, 0, 0)" font-size="9pt" font-family="Lato"  y="13">Employees&#160;</text><text text-decoration="none" x="68" fill="rgb(0, 0, 0)" font-size="9pt" font-family="Lato"  y="13">Login&#160;</text><text text-decoration="none" x="18.5" fill="rgb(0, 0, 0)" font-size="9pt" font-family="Lato"  y="35">Information</text><text text-decoration="none" x="83.5" fill="#4b4b4b" font-size="10pt" font-family="noto_regular"  y="35"></text></g></g><g id="25nhsdcflt"><g transform="translate(660 860)"><path d="M 189.99100494384766,0 L 0,0 L 0,59.99977111816406 L 189.99100494384766,59.99977111816406" fill="rgba(255,255,255,1)" stroke="#03c9a9" stroke-width="1.5" stroke-linecap="round" stroke-linejoin="round"/></g><g transform="translate(745.9955024719238, 880.499885559082) rotate(0, 9, 9.5)" width="18" height="19"><text text-decoration="none" x="1" fill="rgb(0, 0, 0)" font-size="10pt" font-family="Lato"  y="17">D1</text><text text-decoration="none" x="17" fill="#4b4b4b" font-size="10pt" font-family="noto_regular"  y="17"></text></g></g><g id="1zt9dez6wd"><g><path d="M 520,890 L 590.5,890 L 590.5,890 L 590.5,890 L 660,890" fill="none" stroke="#000846" stroke-width="2" stroke-linecap="round" stroke-linejoin="round"/><path d="M 660,890 L 651.304347826087,884.25 L 651.304347826087,895.75 Z" fill="rgb(0,8,70)" stroke="#000846" stroke-width="2" stroke-linecap="round" stroke-linejoin="round"/></g></g><g id="2n4qvcp9ji"><g transform="translate(502 862)"><rect x="0" y="0" width="150" height="37" fill="rgba(255,255,255,0.01)" stroke="rgba(255,255,255,0.01)" stroke-width="NaN" stroke-linecap="round" stroke-linejoin="round"/></g><g transform="translate(538.5, 871) rotate(0, 38.5, 9.5)" width="77" height="19"><text text-decoration="none" x="2.5" fill="rgb(0, 0, 0)" font-size="9pt" font-family="Lato"  y="17">Login&#160;</text><text text-decoration="none" x="35.5" fill="rgb(0, 0, 0)" font-size="9pt" font-family="Lato"  y="17">Details</text><text text-decoration="none" x="74.5" fill="#4b4b4b" font-size="10pt" font-family="noto_regular"  y="17"></text></g></g><g id="kf3qcl87kl"><g transform="translate(50 595)"><rect x="0" y="0" width="101" height="101" fill="rgba(255,255,255,1)" stroke="#03c9a9" stroke-width="1.5" stroke-linecap="round" stroke-linejoin="round"/></g><g transform="translate(61.5, 620) rotate(0, 39, 25.5)" width="78" height="51"><text text-decoration="none" x="16.5" fill="rgb(0, 0, 0)" font-size="10pt" font-family="Lato"  y="14">Human&#160;</text><text text-decoration="none" x="11.5" fill="rgb(0, 0, 0)" font-size="10pt" font-family="Lato"  y="33">Resource&#160;</text><text text-decoration="none" x="2.5" fill="rgb(0, 0, 0)" font-size="10pt" font-family="Lato"  y="55">Department</text><text text-decoration="none" x="75.5" fill="#4b4b4b" font-size="10pt" font-family="noto_regular"  y="55"></text></g></g><g id="1htec7upsq"><g transform="translate(365 595)"><path d="M 0.75,0.75 L 149.75,0.75 L 149.75,89.25 L 0.75,89.25 Z" fill="rgb(255, 255, 255)" stroke="rgb(3, 201, 169)" stroke-width="1.5" stroke-linecap="round" stroke-linejoin="round"/><path d="M 0.75,30.25 L 149.75,30.25" fill="none" stroke="rgb(3, 201, 169)" stroke-width="1.5" stroke-linecap="round" stroke-linejoin="round"/><path d="M 0.75,74.25 L 149.75,74.25" fill="none" stroke="rgb(3, 201, 169)" stroke-width="1.5" stroke-linecap="round" stroke-linejoin="round"/></g><g transform="translate(406, 596) rotate(0, 0, 0)" width="85" height="19"><text text-decoration="none" x="0" fill="#4b4b4b" font-weight="bold" font-size="11pt" font-family="Lato"  y="17">Process&#160;</text><text text-decoration="none" x="60" fill="#4b4b4b" font-weight="bold" font-size="11pt" font-family="Lato"  y="17">2&#160;</text><text text-decoration="none" x="73" fill="#4b4b4b" font-size="10pt" font-family="noto_regular"  y="17"></text></g><g transform="translate(372.25, 628) rotate(0, 69.5, 0)" width="139" height="37"><text text-decoration="none" x="6" fill="#4b4b4b" font-size="11pt" font-family="Lato"  y="16">Manage&#160;</text><text text-decoration="none" x="65" fill="#4b4b4b" font-size="11pt" font-family="Lato"  y="16">Employee</text><text text-decoration="none" x="133" fill="#4b4b4b" font-size="11pt" font-family="Lato"  y="16"></text><text text-decoration="none" x="54" fill="#4b4b4b" font-size="11pt" font-family="Lato"  y="38">Info&#160;</text><text text-decoration="none" x="85" fill="#4b4b4b" font-size="10pt" font-family="noto_regular"  y="38"></text></g></g><g id="1vjiejqqp0"><g><path d="M 150,645 L 258,645 L 258,642.5 L 258,640 L 365,640" fill="none" stroke="#000846" stroke-width="2" stroke-linecap="round" stroke-linejoin="round"/><path d="M 365,640 L 356.30434782608694,634.25 L 356.30434782608694,645.75 Z" fill="rgb(0,8,70)" stroke="#000846" stroke-width="2" stroke-linecap="round" stroke-linejoin="round"/></g></g><g id="5tvsy8cwnt"><g transform="translate(162 609)"><rect x="0" y="0" width="150" height="37" fill="rgba(255,255,255,0.01)" stroke="rgba(255,255,255,0.01)" stroke-width="NaN" stroke-linecap="round" stroke-linejoin="round"/></g><g transform="translate(168.5, 618) rotate(0, 68.5, 9.5)" width="137" height="19"><text text-decoration="none" x="6" fill="rgb(0, 0, 0)" font-size="9pt" font-family="Lato"  y="17">Employee&#160;</text><text text-decoration="none" x="64" fill="rgb(0, 0, 0)" font-size="9pt" font-family="Lato"  y="17">Contact&#160;</text><text text-decoration="none" x="110" fill="rgb(0, 0, 0)" font-size="9pt" font-family="Lato"  y="17">Info</text><text text-decoration="none" x="131" fill="#4b4b4b" font-size="10pt" font-family="noto_regular"  y="17"></text></g></g><g id="d33rmqif7m"><g><path d="M 150,675 L 258,675 L 258,670 L 258,665 L 365,665" fill="none" stroke="#000846" stroke-width="2" stroke-linecap="round" stroke-linejoin="round"/><path d="M 365,665 L 356.30434782608694,659.25 L 356.30434782608694,670.75 Z" fill="rgb(0,8,70)" stroke="#000846" stroke-width="2" stroke-linecap="round" stroke-linejoin="round"/></g></g><g id="16sq51hhif"><g transform="translate(165 640)"><rect x="0" y="0" width="150" height="37" fill="rgba(255,255,255,0.01)" stroke="rgba(255,255,255,0.01)" stroke-width="NaN" stroke-linecap="round" stroke-linejoin="round"/></g><g transform="translate(173.5, 649) rotate(0, 66.5, 9.5)" width="133" height="19"><text text-decoration="none" x="3.5" fill="rgb(0, 0, 0)" font-size="9pt" font-family="Lato"  y="17">Employee&#x27;s&#160;</text><text text-decoration="none" x="70.5" fill="rgb(0, 0, 0)" font-size="9pt" font-family="Lato"  y="17">Travel&#160;</text><text text-decoration="none" x="108.5" fill="rgb(0, 0, 0)" font-size="9pt" font-family="Lato"  y="17">Info</text><text text-decoration="none" x="129.5" fill="#4b4b4b" font-size="10pt" font-family="noto_regular"  y="17"></text></g></g><g id="88nh5t0tzi"><g><path d="M 150,615 L 330,615 L 330,595 L 330,575 L 362.5,575 L 395,575 L 395,595" fill="none" stroke="#000846" stroke-width="2" stroke-linecap="round" stroke-linejoin="round"/><path d="M 395,595 L 400.75,586.304347826087 L 389.25,586.304347826087 Z" fill="rgb(0,8,70)" stroke="#000846" stroke-width="2" stroke-linecap="round" stroke-linejoin="round"/></g></g><g id="60stpsoi8d"><g transform="translate(166 581)"><rect x="0" y="0" width="150" height="37" fill="rgba(255,255,255,0.01)" stroke="rgba(255,255,255,0.01)" stroke-width="NaN" stroke-linecap="round" stroke-linejoin="round"/></g><g transform="translate(168, 590) rotate(0, 73, 9.5)" width="146" height="19"><text text-decoration="none" x="4" fill="rgb(0, 0, 0)" font-size="9pt" font-family="Lato"  y="17">Employee&#x27;s&#160;</text><text text-decoration="none" x="71" fill="rgb(0, 0, 0)" font-size="9pt" font-family="Lato"  y="17">Work&#160;</text><text text-decoration="none" x="103" fill="rgb(0, 0, 0)" font-size="9pt" font-family="Lato"  y="17">Details</text><text text-decoration="none" x="142" fill="#4b4b4b" font-size="10pt" font-family="noto_regular"  y="17"></text></g></g><g id="1naqemmdz0"><mask id="67acd" x="471" y="671" width="243" height="203" maskUnits="userSpaceOnUse"><rect x="471" y="671" width="243" height="203" fill="white" /><rect x="504.2647058823529" y="762.5" width="160" height="25" fill="black" /><rect x="504.2647058823529" y="762.5" width="160" height="25" fill="black" /></mask><g mask="url(#67acd)"><path d="M 700,860 L 700,775 L 592.5,775 L 485,775 L 485,685" fill="none" stroke="#000846" stroke-width="2" stroke-linecap="round" stroke-linejoin="round"/><path d="M 700,860 L 694.25,868.695652173913 L 705.75,868.695652173913 Z" fill="rgb(0,8,70)" stroke="#000846" stroke-width="2" stroke-linecap="round" stroke-linejoin="round"/><path d="M 485,685 L 479.25,693.695652173913 L 490.75,693.695652173913 Z" fill="rgb(0,8,70)" stroke="#000846" stroke-width="2" stroke-linecap="round" stroke-linejoin="round"/></g><g transform="translate(507.2647058823529, 765.5)" width="154" height="19"><text text-decoration="none" x="6" fill="rgb(0, 0, 0)" font-size="9pt" font-family="Lato"  y="17">Employee&#x27;s&#160;</text><text text-decoration="none" x="73" fill="rgb(0, 0, 0)" font-size="9pt" font-family="Lato"  y="17">Log&#160;</text><text text-decoration="none" x="96" fill="rgb(0, 0, 0)" font-size="9pt" font-family="Lato"  y="17">In&#160;</text><text text-decoration="none" x="109" fill="rgb(0, 0, 0)" font-size="9pt" font-family="Lato"  y="17">Details</text><text text-decoration="none" x="148" fill="#4b4b4b" font-size="10pt" font-family="noto_regular"  y="17"></text></g><g transform="translate(507.2647058823529, 765.5)" width="154" height="19"><text text-decoration="none" x="6" fill="rgb(0, 0, 0)" font-size="9pt" font-family="Lato"  y="17">Employee&#x27;s&#160;</text><text text-decoration="none" x="73" fill="rgb(0, 0, 0)" font-size="9pt" font-family="Lato"  y="17">Log&#160;</text><text text-decoration="none" x="96" fill="rgb(0, 0, 0)" font-size="9pt" font-family="Lato"  y="17">In&#160;</text><text text-decoration="none" x="109" fill="rgb(0, 0, 0)" font-size="9pt" font-family="Lato"  y="17">Details</text><text text-decoration="none" x="148" fill="#4b4b4b" font-size="10pt" font-family="noto_regular"  y="17"></text></g></g><g id="8rorr3prpu"><g transform="translate(700 620)"><path d="M 200.5,0 L 0,0 L 0,35 L 200.5,35" fill="rgba(255,255,255,1)" stroke="#03c9a9" stroke-width="1.5" stroke-linecap="round" stroke-linejoin="round"/></g><g transform="translate(791.25, 628) rotate(0, 9, 9.5)" width="18" height="19"><text text-decoration="none" x="1" fill="rgb(0, 0, 0)" font-size="10pt" font-family="Lato"  y="17">D2</text><text text-decoration="none" x="17" fill="#4b4b4b" font-size="10pt" font-family="noto_regular"  y="17"></text></g></g><g id="16yn6a523p"><g><path d="M 130,695 L 130,715 L 262.5,715 L 395,715 L 395,685" fill="none" stroke="#000846" stroke-width="2" stroke-linecap="round" stroke-linejoin="round"/><path d="M 395,685 L 389.25,693.695652173913 L 400.75,693.695652173913 Z" fill="rgb(0,8,70)" stroke="#000846" stroke-width="2" stroke-linecap="round" stroke-linejoin="round"/></g></g><g id="2ew19x8fez"><g transform="translate(185 685)"><rect x="0" y="0" width="169.9999988079071" height="34.99971228837967" fill="rgba(255,255,255,0.01)" stroke="rgba(255,255,255,0.01)" stroke-width="NaN" stroke-linecap="round" stroke-linejoin="round"/></g><g transform="translate(203.49999940395355, 685.4998561441898) rotate(0, 66.5, 17)" width="133" height="34"><text text-decoration="none" x="5.5" fill="rgb(0, 0, 0)" font-size="9pt" font-family="Lato"  y="13">Employee&#x27;s&#160;</text><text text-decoration="none" x="72.5" fill="rgb(0, 0, 0)" font-size="9pt" font-family="Lato"  y="13">Education&#160;</text><text text-decoration="none" x="47" fill="rgb(0, 0, 0)" font-size="9pt" font-family="Lato"  y="35">Details</text><text text-decoration="none" x="86" fill="#4b4b4b" font-size="10pt" font-family="noto_regular"  y="35"></text></g></g><g id="1bn41in1mq"><g><path d="M 515,640 L 700,640" fill="none" stroke="#000846" stroke-width="2" stroke-linecap="round" stroke-linejoin="round"/><path d="M 515,640 L 506.30434782608694,634.25 L 506.30434782608694,645.75 Z" fill="rgb(0,8,70)" stroke="#000846" stroke-width="2" stroke-linecap="round" stroke-linejoin="round"/><path d="M 700,640 L 691.304347826087,634.25 L 691.304347826087,645.75 Z" fill="rgb(0,8,70)" stroke="#000846" stroke-width="2" stroke-linecap="round" stroke-linejoin="round"/></g></g><g id="1hmiir6xj1"><g transform="translate(528 613)"><rect x="0" y="0" width="150" height="37" fill="rgba(255,255,255,0.01)" stroke="rgba(255,255,255,0.01)" stroke-width="NaN" stroke-linecap="round" stroke-linejoin="round"/></g><g transform="translate(546.5, 622) rotate(0, 56.5, 9.5)" width="113" height="19"><text text-decoration="none" x="3.5" fill="rgb(0, 0, 0)" font-size="9pt" font-family="Lato"  y="17">Employee&#x27;s&#160;</text><text text-decoration="none" x="70.5" fill="rgb(0, 0, 0)" font-size="9pt" font-family="Lato"  y="17">Record</text><text text-decoration="none" x="109.5" fill="#4b4b4b" font-size="10pt" font-family="noto_regular"  y="17"></text></g></g><g id="1cw557k0dm"><g transform="translate(195 440)"><path d="M 0.75,0.75 L 149.25,0.75 L 149.25,79.25 L 0.75,79.25 Z" fill="rgb(255, 255, 255)" stroke="rgb(3, 201, 169)" stroke-width="1.5" stroke-linecap="round" stroke-linejoin="round"/><path d="M 0.75,30.25 L 149.25,30.25" fill="none" stroke="rgb(3, 201, 169)" stroke-width="1.5" stroke-linecap="round" stroke-linejoin="round"/><path d="M 0.75,64.25 L 149.25,64.25" fill="none" stroke="rgb(3, 201, 169)" stroke-width="1.5" stroke-linecap="round" stroke-linejoin="round"/></g><g transform="translate(235.75, 441) rotate(0, 0, 0)" width="85" height="19"><text text-decoration="none" x="0" fill="#4b4b4b" font-weight="bold" font-size="11pt" font-family="Lato"  y="17">Process&#160;</text><text text-decoration="none" x="60" fill="#4b4b4b" font-weight="bold" font-size="11pt" font-family="Lato"  y="17">3&#160;</text><text text-decoration="none" x="73" fill="#4b4b4b" font-size="10pt" font-family="noto_regular"  y="17"></text></g><g transform="translate(206.5, 473) rotate(0, 0, 0)" width="131" height="19"><text text-decoration="none" x="0" fill="#4b4b4b" font-size="11pt" font-family="Lato"  y="17">Employee&#160;</text><text text-decoration="none" x="72" fill="#4b4b4b" font-size="11pt" font-family="Lato"  y="17">Salary&#160;</text><text text-decoration="none" x="118" fill="#4b4b4b" font-size="10pt" font-family="noto_regular"  y="17"></text></g></g><g id="1wuhdin47c"><g><path d="M 70,595 L 70,480 L 195,480" fill="none" stroke="#000846" stroke-width="2" stroke-linecap="round" stroke-linejoin="round"/><path d="M 195,480 L 186.30434782608697,474.25 L 186.30434782608697,485.75 Z" fill="rgb(0,8,70)" stroke="#000846" stroke-width="2" stroke-linecap="round" stroke-linejoin="round"/></g></g><g id="52qrf251p5"><g transform="translate(43 450)"><rect x="0" y="0" width="150" height="37" fill="rgba(255,255,255,0.01)" stroke="rgba(255,255,255,0.01)" stroke-width="NaN" stroke-linecap="round" stroke-linejoin="round"/></g><g transform="translate(62.5, 459) rotate(0, 55.5, 9.5)" width="111" height="19"><text text-decoration="none" x="4" fill="rgb(0, 0, 0)" font-size="9pt" font-family="Lato"  y="17">Salary&#160;</text><text text-decoration="none" x="42" fill="rgb(0, 0, 0)" font-size="9pt" font-family="Lato"  y="17">Information</text><text text-decoration="none" x="107" fill="#4b4b4b" font-size="10pt" font-family="noto_regular"  y="17"></text></g></g><g id="2jpuruhdva"><g transform="translate(525 435)"><path d="M 0.75,0.75 L 149.75,0.75 L 149.75,88.75 L 0.75,88.75 Z" fill="rgb(255, 255, 255)" stroke="rgb(3, 201, 169)" stroke-width="1.5" stroke-linecap="round" stroke-linejoin="round"/><path d="M 0.75,30.25 L 149.75,30.25" fill="none" stroke="rgb(3, 201, 169)" stroke-width="1.5" stroke-linecap="round" stroke-linejoin="round"/><path d="M 0.75,73.25 L 149.75,73.25" fill="none" stroke="rgb(3, 201, 169)" stroke-width="1.5" stroke-linecap="round" stroke-linejoin="round"/></g><g transform="translate(566, 436) rotate(0, 0, 0)" width="85" height="19"><text text-decoration="none" x="0" fill="#4b4b4b" font-weight="bold" font-size="11pt" font-family="Lato"  y="17">Process&#160;</text><text text-decoration="none" x="60" fill="#4b4b4b" font-weight="bold" font-size="11pt" font-family="Lato"  y="17">4&#160;</text><text text-decoration="none" x="73" fill="#4b4b4b" font-size="10pt" font-family="noto_regular"  y="17"></text></g><g transform="translate(528.75, 468) rotate(0, 73, 0)" width="146" height="37"><text text-decoration="none" x="7" fill="#4b4b4b" font-size="11pt" font-family="Lato"  y="16">Update&#160;</text><text text-decoration="none" x="61" fill="#4b4b4b" font-size="11pt" font-family="Lato"  y="16">Employee&#x27;s</text><text text-decoration="none" x="139" fill="#4b4b4b" font-size="11pt" font-family="Lato"  y="16"></text><text text-decoration="none" x="50" fill="#4b4b4b" font-size="11pt" font-family="Lato"  y="38">Salary&#160;</text><text text-decoration="none" x="96" fill="#4b4b4b" font-size="10pt" font-family="noto_regular"  y="38"></text></g></g><g id="x2nnn1rvwn"><g><path d="M 345,480 L 525,480" fill="none" stroke="#000846" stroke-width="2" stroke-linecap="round" stroke-linejoin="round"/><path d="M 525,480 L 516.304347826087,474.25 L 516.304347826087,485.75 Z" fill="rgb(0,8,70)" stroke="#000846" stroke-width="2" stroke-linecap="round" stroke-linejoin="round"/></g></g><g id="2mmjbv4b6i"><g transform="translate(347 451)"><rect x="0" y="0" width="150" height="37" fill="rgba(255,255,255,0.01)" stroke="rgba(255,255,255,0.01)" stroke-width="NaN" stroke-linecap="round" stroke-linejoin="round"/></g><g transform="translate(356, 460) rotate(0, 66, 9.5)" width="132" height="19"><text text-decoration="none" x="3.5" fill="rgb(0, 0, 0)" font-size="9pt" font-family="Lato"  y="17">Employee&#x27;s&#160;</text><text text-decoration="none" x="70.5" fill="rgb(0, 0, 0)" font-size="9pt" font-family="Lato"  y="17">Pay&#160;</text><text text-decoration="none" x="93.5" fill="rgb(0, 0, 0)" font-size="9pt" font-family="Lato"  y="17">Grade</text><text text-decoration="none" x="128.5" fill="#4b4b4b" font-size="10pt" font-family="noto_regular"  y="17"></text></g></g><g id="djep1w2syh"><g transform="translate(920 670)"><path d="M 0.75,0.75 L 149.75,0.75 L 149.75,84.24999618530273 L 0.75,84.24999618530273 Z" fill="rgb(255, 255, 255)" stroke="rgb(3, 201, 169)" stroke-width="1.5" stroke-linecap="round" stroke-linejoin="round"/><path d="M 0.75,30.25 L 149.75,30.25" fill="none" stroke="rgb(3, 201, 169)" stroke-width="1.5" stroke-linecap="round" stroke-linejoin="round"/><path d="M 0.75,68.25 L 149.75,68.25" fill="none" stroke="rgb(3, 201, 169)" stroke-width="1.5" stroke-linecap="round" stroke-linejoin="round"/></g><g transform="translate(961, 670.9999927745142) rotate(0, 0, 0)" width="85" height="19"><text text-decoration="none" x="0" fill="#4b4b4b" font-weight="bold" font-size="11pt" font-family="Lato"  y="17">Process&#160;</text><text text-decoration="none" x="60" fill="#4b4b4b" font-weight="bold" font-size="11pt" font-family="Lato"  y="17">5&#160;</text><text text-decoration="none" x="73" fill="#4b4b4b" font-size="10pt" font-family="noto_regular"  y="17"></text></g><g transform="translate(931.5, 702.9997615589708) rotate(0, 0, 0)" width="166" height="19"><text text-decoration="none" x="0" fill="#4b4b4b" font-size="11pt" font-family="Lato"  y="17">All&#160;</text><text text-decoration="none" x="22" fill="#4b4b4b" font-size="11pt" font-family="Lato"  y="17">Employee&#160;</text><text text-decoration="none" x="94" fill="#4b4b4b" font-size="11pt" font-family="Lato"  y="17">Records&#160;</text><text text-decoration="none" x="153" fill="#4b4b4b" font-size="10pt" font-family="noto_regular"  y="17"></text></g></g><g id="877djhwco5"><g transform="translate(720 370)"><path d="M 199.99520111083984,0 L 0,0 L 0,59.99977111816406 L 199.99520111083984,59.99977111816406" fill="rgba(255,255,255,1)" stroke="#03c9a9" stroke-width="1.5" stroke-linecap="round" stroke-linejoin="round"/></g><g transform="translate(810.9976005554199, 390.49988555908203) rotate(0, 9, 9.5)" width="18" height="19"><text text-decoration="none" x="1" fill="rgb(0, 0, 0)" font-size="10pt" font-family="Lato"  y="17">D3</text><text text-decoration="none" x="17" fill="#4b4b4b" font-size="10pt" font-family="noto_regular"  y="17"></text></g></g><g id="5v5s7f4opa"><g transform="translate(1215 655)"><rect x="0" y="0" width="101" height="101" fill="rgba(255,255,255,1)" stroke="#03c9a9" stroke-width="1.5" stroke-linecap="round" stroke-linejoin="round"/></g><g transform="translate(1232, 696) rotate(0, 33.5, 9.5)" width="67" height="19"><text text-decoration="none" x="1" fill="rgb(0, 0, 0)" font-size="10pt" font-family="Lato"  y="17">EMPLOYEE</text><text text-decoration="none" x="66" fill="#4b4b4b" font-size="10pt" font-family="noto_regular"  y="17"></text></g></g><g id="282kvaohjq"><g transform="translate(1085 650)"><rect x="0" y="0" width="108.99999761581421" height="110.00000333786011" fill="rgba(255,255,255,1)" stroke="#03c9a9" stroke-width="1.5" stroke-linecap="round" stroke-linejoin="round"/></g><g transform="translate(1095.999998807907, 679.50000166893) rotate(0, 43.5, 25.5)" width="87" height="51"><text text-decoration="none" x="19" fill="rgb(0, 0, 0)" font-size="10pt" font-family="Lato"  y="14">HUMAN&#160;</text><text text-decoration="none" x="11.5" fill="rgb(0, 0, 0)" font-size="10pt" font-family="Lato"  y="33">RESOURCE&#160;</text><text text-decoration="none" x="2" fill="rgb(0, 0, 0)" font-size="10pt" font-family="Lato"  y="55">DEPARTMENT</text><text text-decoration="none" x="85" fill="#4b4b4b" font-size="10pt" font-family="noto_regular"  y="55"></text></g></g><g id="beysjhilql"><g><path d="M 720,400 L 600,400 L 600,435" fill="none" stroke="#000846" stroke-width="2" stroke-linecap="round" stroke-linejoin="round"/><path d="M 720,400 L 728.695652173913,405.75 L 728.695652173913,394.25 Z" fill="rgb(0,8,70)" stroke="#000846" stroke-width="2" stroke-linecap="round" stroke-linejoin="round"/><path d="M 600,435 L 605.75,426.30434782608694 L 594.25,426.30434782608694 Z" fill="rgb(0,8,70)" stroke="#000846" stroke-width="2" stroke-linecap="round" stroke-linejoin="round"/></g></g><g id="cwq1bf2ny8"><g transform="translate(576 372)"><rect x="0" y="0" width="150" height="37" fill="rgba(255,255,255,0.01)" stroke="rgba(255,255,255,0.01)" stroke-width="NaN" stroke-linecap="round" stroke-linejoin="round"/></g><g transform="translate(586, 381) rotate(0, 65, 9.5)" width="130" height="19"><text text-decoration="none" x="4.5" fill="rgb(0, 0, 0)" font-size="9pt" font-family="Lato"  y="17">Salary&#160;</text><text text-decoration="none" x="42.5" fill="rgb(0, 0, 0)" font-size="9pt" font-family="Lato"  y="17">Record&#160;</text><text text-decoration="none" x="84.5" fill="rgb(0, 0, 0)" font-size="9pt" font-family="Lato"  y="17">Update</text><text text-decoration="none" x="125.5" fill="#4b4b4b" font-size="10pt" font-family="noto_regular"  y="17"></text></g></g><g id="vtkbfvx8un"><g transform="translate(1080 345)"><path d="M 0.75,0.75 L 149.25,0.75 L 149.25,93.75 L 0.75,93.75 Z" fill="rgb(255, 255, 255)" stroke="rgb(3, 201, 169)" stroke-width="1.5" stroke-linecap="round" stroke-linejoin="round"/><path d="M 0.75,30.25 L 149.25,30.25" fill="none" stroke="rgb(3, 201, 169)" stroke-width="1.5" stroke-linecap="round" stroke-linejoin="round"/><path d="M 0.75,78.25 L 149.25,78.25" fill="none" stroke="rgb(3, 201, 169)" stroke-width="1.5" stroke-linecap="round" stroke-linejoin="round"/></g><g transform="translate(1120.75, 346) rotate(0, 0, 0)" width="85" height="19"><text text-decoration="none" x="0" fill="#4b4b4b" font-weight="bold" font-size="11pt" font-family="Lato"  y="17">Process&#160;</text><text text-decoration="none" x="60" fill="#4b4b4b" font-weight="bold" font-size="11pt" font-family="Lato"  y="17">7&#160;</text><text text-decoration="none" x="73" fill="#4b4b4b" font-size="10pt" font-family="noto_regular"  y="17"></text></g><g transform="translate(1091.5, 378) rotate(0, 0, 0)" width="145" height="19"><text text-decoration="none" x="0" fill="#4b4b4b" font-size="11pt" font-family="Lato"  y="17">Produce&#160;</text><text text-decoration="none" x="61" fill="#4b4b4b" font-size="11pt" font-family="Lato"  y="17">Employee&#160;</text><text text-decoration="none" x="133" fill="#4b4b4b" font-size="10pt" font-family="noto_regular"  y="17"></text></g><g transform="translate(1091.5, 397) rotate(0, 0, 0)" width="106" height="19"><text text-decoration="none" x="0" fill="#4b4b4b" font-size="11pt" font-family="Lato"  y="17">Salary&#160;</text><text text-decoration="none" x="46" fill="#4b4b4b" font-size="11pt" font-family="Lato"  y="17">Report&#160;</text><text text-decoration="none" x="96" fill="#4b4b4b" font-size="10pt" font-family="noto_regular"  y="17"></text></g></g><g id="25d12bqtgl"><g><path d="M 880,370 L 880,365 L 1080,365" fill="none" stroke="#000846" stroke-width="2" stroke-linecap="round" stroke-linejoin="round"/><path d="M 1080,365 L 1071.304347826087,359.25 L 1071.304347826087,370.75 Z" fill="rgb(0,8,70)" stroke="#000846" stroke-width="2" stroke-linecap="round" stroke-linejoin="round"/></g></g><g id="1qjabn4eph"><g transform="translate(889 333)"><rect x="0" y="0" width="150" height="37" fill="rgba(255,255,255,0.01)" stroke="rgba(255,255,255,0.01)" stroke-width="NaN" stroke-linecap="round" stroke-linejoin="round"/></g><g transform="translate(891.5, 342) rotate(0, 72.5, 9.5)" width="145" height="19"><text text-decoration="none" x="5" fill="rgb(0, 0, 0)" font-size="9pt" font-family="Lato"  y="17">Employee&#160;</text><text text-decoration="none" x="63" fill="rgb(0, 0, 0)" font-size="9pt" font-family="Lato"  y="17">Salary&#160;</text><text text-decoration="none" x="101" fill="rgb(0, 0, 0)" font-size="9pt" font-family="Lato"  y="17">Record</text><text text-decoration="none" x="140" fill="#4b4b4b" font-size="10pt" font-family="noto_regular"  y="17"></text></g></g><g id="bxr7jgws1w"><g><path d="M 1230,390 L 1265,390 L 1265,655" fill="none" stroke="#000846" stroke-width="2" stroke-linecap="round" stroke-linejoin="round"/><path d="M 1265,655 L 1270.75,646.304347826087 L 1259.25,646.304347826087 Z" fill="rgb(0,8,70)" stroke="#000846" stroke-width="2" stroke-linecap="round" stroke-linejoin="round"/></g></g><g id="dnhb587vb2"><g transform="translate(1329.4563384783978 463.8) rotate(90)"><rect x="0" y="0" width="92.12626218795776" height="88.30633847839759" fill="rgba(255,255,255,0.01)" stroke="rgba(255,255,255,0.01)" stroke-width="NaN" stroke-linecap="round" stroke-linejoin="round"/></g><g transform="translate(1245.3031692391992, 492.86313109397884) rotate(90, 40, 17)" width="80" height="34"><text text-decoration="none" x="12.5" fill="rgb(0, 0, 0)" font-size="9pt" font-family="Lato"  y="13">Employee&#160;</text><text text-decoration="none" x="2.5" fill="rgb(0, 0, 0)" font-size="9pt" font-family="Lato"  y="35">Salary&#160;</text><text text-decoration="none" x="40.5" fill="rgb(0, 0, 0)" font-size="9pt" font-family="Lato"  y="35">Report</text><text text-decoration="none" x="77.5" fill="#4b4b4b" font-size="10pt" font-family="noto_regular"  y="35"></text></g></g><g id="2pnh23e4i3"><g><path d="M 920,685 L 740,685 L 740,655" fill="none" stroke="#000846" stroke-width="2" stroke-linecap="round" stroke-linejoin="round"/><path d="M 920,685 L 928.695652173913,690.75 L 928.695652173913,679.25 Z" fill="rgb(0,8,70)" stroke="#000846" stroke-width="2" stroke-linecap="round" stroke-linejoin="round"/><path d="M 740,655 L 734.25,663.695652173913 L 745.75,663.695652173913 Z" fill="rgb(0,8,70)" stroke="#000846" stroke-width="2" stroke-linecap="round" stroke-linejoin="round"/></g></g><g id="4apsj52zn6"><g transform="translate(746 658)"><rect x="0" y="0" width="150" height="37" fill="rgba(255,255,255,0.01)" stroke="rgba(255,255,255,0.01)" stroke-width="NaN" stroke-linecap="round" stroke-linejoin="round"/></g><g transform="translate(766, 667) rotate(0, 55, 9.5)" width="110" height="19"><text text-decoration="none" x="3.5" fill="rgb(0, 0, 0)" font-size="9pt" font-family="Lato"  y="17">Employee&#160;</text><text text-decoration="none" x="61.5" fill="rgb(0, 0, 0)" font-size="9pt" font-family="Lato"  y="17">Records</text><text text-decoration="none" x="106.5" fill="#4b4b4b" font-size="10pt" font-family="noto_regular"  y="17"></text></g></g><g id="c7j7ws4vep"><g><path d="M 675,505 L 960,505 L 960,670" fill="none" stroke="#000846" stroke-width="2" stroke-linecap="round" stroke-linejoin="round"/><path d="M 675,505 L 666.304347826087,499.25 L 666.304347826087,510.75 Z" fill="rgb(0,8,70)" stroke="#000846" stroke-width="2" stroke-linecap="round" stroke-linejoin="round"/><path d="M 960,670 L 965.75,661.304347826087 L 954.25,661.304347826087 Z" fill="rgb(0,8,70)" stroke="#000846" stroke-width="2" stroke-linecap="round" stroke-linejoin="round"/></g></g><g id="25q0n6gpub"><g transform="translate(737 477)"><rect x="0" y="0" width="150" height="37" fill="rgba(255,255,255,0.01)" stroke="rgba(255,255,255,0.01)" stroke-width="NaN" stroke-linecap="round" stroke-linejoin="round"/></g><g transform="translate(743, 486) rotate(0, 69, 9.5)" width="138" height="19"><text text-decoration="none" x="4.5" fill="rgb(0, 0, 0)" font-size="9pt" font-family="Lato"  y="17">Employee&#160;</text><text text-decoration="none" x="62.5" fill="rgb(0, 0, 0)" font-size="9pt" font-family="Lato"  y="17">Salary&#160;</text><text text-decoration="none" x="100.5" fill="rgb(0, 0, 0)" font-size="9pt" font-family="Lato"  y="17">Detail</text><text text-decoration="none" x="133.5" fill="#4b4b4b" font-size="10pt" font-family="noto_regular"  y="17"></text></g></g><g id="1j1i4ff6cm"><g><path d="M 1105,650 L 1105,630 L 1050,630 L 995,630 L 995,622.5 L 995,615 L 515,615" fill="none" stroke="#000846" stroke-width="2" stroke-linecap="round" stroke-linejoin="round"/><path d="M 515,615 L 523.695652173913,620.75 L 523.695652173913,609.25 Z" fill="rgb(0,8,70)" stroke="#000846" stroke-width="2" stroke-linecap="round" stroke-linejoin="round"/></g></g><g id="65gtmgx34o"><g transform="translate(645 585)"><rect x="0" y="0" width="150" height="37" fill="rgba(255,255,255,0.01)" stroke="rgba(255,255,255,0.01)" stroke-width="NaN" stroke-linecap="round" stroke-linejoin="round"/></g><g transform="translate(651.5, 586.5) rotate(0, 68.5, 17)" width="137" height="34"><text text-decoration="none" x="5" fill="rgb(0, 0, 0)" font-size="9pt" font-family="Lato"  y="13">Search/View&#160;</text><text text-decoration="none" x="77" fill="rgb(0, 0, 0)" font-size="9pt" font-family="Lato"  y="13">Employee&#160;</text><text text-decoration="none" x="58" fill="rgb(0, 0, 0)" font-size="9pt" font-family="Lato"  y="35">Info</text><text text-decoration="none" x="79" fill="#4b4b4b" font-size="10pt" font-family="noto_regular"  y="35"></text></g></g><g id="5wz8at90qp"><g><path d="M 1140,650 L 1140,542.5 L 1195,542.5 L 1250,542.5 L 1250,478.75 L 1250,415 L 1230,415" fill="none" stroke="#000846" stroke-width="2" stroke-linecap="round" stroke-linejoin="round"/><path d="M 1230,415 L 1238.695652173913,420.75 L 1238.695652173913,409.25 Z" fill="rgb(0,8,70)" stroke="#000846" stroke-width="2" stroke-linecap="round" stroke-linejoin="round"/></g></g><g id="2psy63q9ea"><g transform="translate(1110 515)"><rect x="0" y="0" width="150" height="37" fill="rgba(255,255,255,0.01)" stroke="rgba(255,255,255,0.01)" stroke-width="NaN" stroke-linecap="round" stroke-linejoin="round"/></g><g transform="translate(1116.5, 516.5) rotate(0, 68.5, 17)" width="137" height="34"><text text-decoration="none" x="5" fill="rgb(0, 0, 0)" font-size="9pt" font-family="Lato"  y="13">Search/View&#160;</text><text text-decoration="none" x="77" fill="rgb(0, 0, 0)" font-size="9pt" font-family="Lato"  y="13">Employee&#160;</text><text text-decoration="none" x="39" fill="rgb(0, 0, 0)" font-size="9pt" font-family="Lato"  y="35">Salary&#160;</text><text text-decoration="none" x="77" fill="rgb(0, 0, 0)" font-size="9pt" font-family="Lato"  y="35">Info</text><text text-decoration="none" x="98" fill="#4b4b4b" font-size="10pt" font-family="noto_regular"  y="35"></text></g></g><g id="13izxktslh"><g transform="translate(350 330)"><path d="M 0.75,0.75 L 149.25,0.75 L 149.25,90.75 L 0.75,90.75 Z" fill="rgb(255, 255, 255)" stroke="rgb(3, 201, 169)" stroke-width="1.5" stroke-linecap="round" stroke-linejoin="round"/><path d="M 0.75,30.25 L 149.25,30.25" fill="none" stroke="rgb(3, 201, 169)" stroke-width="1.5" stroke-linecap="round" stroke-linejoin="round"/><path d="M 0.75,75.25 L 149.25,75.25" fill="none" stroke="rgb(3, 201, 169)" stroke-width="1.5" stroke-linecap="round" stroke-linejoin="round"/></g><g transform="translate(390.75, 331) rotate(0, 0, 0)" width="85" height="19"><text text-decoration="none" x="0" fill="#4b4b4b" font-weight="bold" font-size="11pt" font-family="Lato"  y="17">Process&#160;</text><text text-decoration="none" x="60" fill="#4b4b4b" font-weight="bold" font-size="11pt" font-family="Lato"  y="17">6&#160;</text><text text-decoration="none" x="73" fill="#4b4b4b" font-size="10pt" font-family="noto_regular"  y="17"></text></g><g transform="translate(370, 363) rotate(0, 56.5, 0)" width="113" height="37"><text text-decoration="none" x="5" fill="#4b4b4b" font-size="11pt" font-family="Lato"  y="16">Produce&#160;</text><text text-decoration="none" x="66" fill="#4b4b4b" font-size="11pt" font-family="Lato"  y="16">Salary</text><text text-decoration="none" x="108" fill="#4b4b4b" font-size="11pt" font-family="Lato"  y="16"></text><text text-decoration="none" x="27" fill="#4b4b4b" font-size="11pt" font-family="Lato"  y="38">Records&#160;</text><text text-decoration="none" x="86" fill="#4b4b4b" font-size="10pt" font-family="noto_regular"  y="38"></text></g></g><g id="qrhtuap6hr"><g><path d="M 840,370 L 840,350 L 500,350" fill="none" stroke="#000846" stroke-width="2" stroke-linecap="round" stroke-linejoin="round"/><path d="M 500,350 L 508.69565217391306,355.75 L 508.69565217391306,344.25 Z" fill="rgb(0,8,70)" stroke="#000846" stroke-width="2" stroke-linecap="round" stroke-linejoin="round"/></g></g><g id="br12in3p6l"><g transform="translate(595 323)"><rect x="0" y="0" width="150" height="37" fill="rgba(255,255,255,0.01)" stroke="rgba(255,255,255,0.01)" stroke-width="NaN" stroke-linecap="round" stroke-linejoin="round"/></g><g transform="translate(615.5, 324.5) rotate(0, 54.5, 17)" width="109" height="34"><text text-decoration="none" x="3.5" fill="rgb(0, 0, 0)" font-size="9pt" font-family="Lato"  y="13">Employee&#x27;s&#160;</text><text text-decoration="none" x="70.5" fill="rgb(0, 0, 0)" font-size="9pt" font-family="Lato"  y="13">Salary&#160;</text><text text-decoration="none" x="32" fill="rgb(0, 0, 0)" font-size="9pt" font-family="Lato"  y="35">Records</text><text text-decoration="none" x="77" fill="#4b4b4b" font-size="10pt" font-family="noto_regular"  y="35"></text></g></g><g id="2ls6xxlex7"><g transform="translate(60 325)"><rect x="0" y="0" width="101" height="101" fill="rgba(255,255,255,1)" stroke="#03c9a9" stroke-width="1.5" stroke-linecap="round" stroke-linejoin="round"/></g><g transform="translate(71.5, 358) rotate(0, 39, 17.5)" width="78" height="35"><text text-decoration="none" x="5.5" fill="rgb(0, 0, 0)" font-size="10pt" font-family="Lato"  y="14">Accounting&#160;</text><text text-decoration="none" x="2.5" fill="rgb(0, 0, 0)" font-size="10pt" font-family="Lato"  y="36">Department</text><text text-decoration="none" x="75.5" fill="#4b4b4b" font-size="10pt" font-family="noto_regular"  y="36"></text></g></g><g id="1rplpkqba7"><g><path d="M 350,375 L 160,375" fill="none" stroke="#000846" stroke-width="2" stroke-linecap="round" stroke-linejoin="round"/><path d="M 160,375 L 168.69565217391303,380.75 L 168.69565217391303,369.25 Z" fill="rgb(0,8,70)" stroke="#000846" stroke-width="2" stroke-linecap="round" stroke-linejoin="round"/></g></g><g id="23sikwa1y4"><g transform="translate(160 350)"><rect x="0" y="0" width="150" height="37" fill="rgba(255,255,255,0.01)" stroke="rgba(255,255,255,0.01)" stroke-width="NaN" stroke-linecap="round" stroke-linejoin="round"/></g><g transform="translate(191, 359) rotate(0, 44, 9.5)" width="88" height="19"><text text-decoration="none" x="2.5" fill="rgb(0, 0, 0)" font-size="9pt" font-family="Lato"  y="17">Salary&#160;</text><text text-decoration="none" x="40.5" fill="rgb(0, 0, 0)" font-size="9pt" font-family="Lato"  y="17">Records</text><text text-decoration="none" x="85.5" fill="#4b4b4b" font-size="10pt" font-family="noto_regular"  y="17"></text></g></g><g id="2ambq2oo5n"><g><path d="M 920,740 L 900,740 L 900,770 L 900,800 L 1020,800 L 1140,800 L 1140,760" fill="none" stroke="#000846" stroke-width="2" stroke-linecap="round" stroke-linejoin="round"/><path d="M 1140,760 L 1134.25,768.695652173913 L 1145.75,768.695652173913 Z" fill="rgb(0,8,70)" stroke="#000846" stroke-width="2" stroke-linecap="round" stroke-linejoin="round"/></g></g><g id="8354el29db"><g transform="translate(925 767)"><rect x="0" y="0" width="150" height="37" fill="rgba(255,255,255,0.01)" stroke="rgba(255,255,255,0.01)" stroke-width="NaN" stroke-linecap="round" stroke-linejoin="round"/></g><g transform="translate(944, 768.5) rotate(0, 56, 17)" width="112" height="34"><text text-decoration="none" x="3" fill="rgb(0, 0, 0)" font-size="9pt" font-family="Lato"  y="13">Employee&#x27;s&#160;</text><text text-decoration="none" x="70" fill="rgb(0, 0, 0)" font-size="9pt" font-family="Lato"  y="13">Details</text><text text-decoration="none" x="109" fill="rgb(0, 0, 0)" font-size="9pt" font-family="Lato"  y="13"></text><text text-decoration="none" x="56" fill="#4b4b4b" font-size="10pt" font-family="noto_regular"  y="35"></text></g></g><g id="23ixeiewq0"><g transform="translate(445 950)"><rect x="0" y="0" width="464" height="37" fill="rgba(255,255,255,0.01)" stroke="rgba(255,255,255,0.01)" stroke-width="NaN" stroke-linecap="round" stroke-linejoin="round"/></g><g transform="translate(499, 959) rotate(0, 178, 9.5)" width="356" height="19"><text text-decoration="none" x="13.5" fill="rgb(0, 0, 0)" font-size="9pt" font-family="Lato"  y="17">Data&#160;</text><text text-decoration="none" x="43.5" fill="rgb(0, 0, 0)" font-size="9pt" font-family="Lato"  y="17">Flow&#160;</text><text text-decoration="none" x="71.5" fill="rgb(0, 0, 0)" font-size="9pt" font-family="Lato"  y="17">Diagram&#160;</text><text text-decoration="none" x="123.5" fill="rgb(0, 0, 0)" font-size="9pt" font-family="Lato"  y="17">Level&#160;</text><text text-decoration="none" x="155.5" fill="rgb(0, 0, 0)" font-size="9pt" font-family="Lato"  y="17">1&#160;</text><text text-decoration="none" x="165.5" fill="rgb(0, 0, 0)" font-size="9pt" font-family="Lato"  y="17">Employee&#160;</text><text text-decoration="none" x="223.5" fill="rgb(0, 0, 0)" font-size="9pt" font-family="Lato"  y="17">Management&#160;</text><text text-decoration="none" x="301.5" fill="rgb(0, 0, 0)" font-size="9pt" font-family="Lato"  y="17">System</text><text text-decoration="none" x="342.5" fill="#4b4b4b" font-size="10pt" font-family="noto_regular"  y="17"></text></g></g></svg>